<?xml version="1.0" encoding="iso-8859-1"?>
<!-- Generator: Adobe Illustrator 19.0.0, SVG Export Plug-In . SVG Version: 6.00 Build 0)  -->
<svg version="1.1" id="Layer_1" xmlns="http://www.w3.org/2000/svg" xmlns:xlink="http://www.w3.org/1999/xlink" x="0px" y="0px"
	 viewBox="0 0 512 512" style="enable-background:new 0 0 512 512;" xml:space="preserve">
<path style="fill:#5E5F62;" d="M353.103,0H158.897c-19.5-0.009-35.302,15.793-35.31,35.293c0,0.009,0,0.009,0,0.018V476.69
	c-0.009,19.5,15.793,35.302,35.293,35.31c0.009,0,0.009,0,0.018,0h194.207c19.5,0.009,35.302-15.793,35.31-35.293
	c0-0.009,0-0.009,0-0.018V35.31c0.009-19.5-15.793-35.302-35.293-35.31C353.112,0,353.112,0,353.103,0z"/>
<rect x="123.586" y="88.276" style="fill:#2FA8CC;" width="264.828" height="282.483"/>
<g>
	<circle style="fill:#35495E;" cx="256" cy="441.379" r="35.31"/>
	<path style="fill:#35495E;" d="M282.483,52.966h-52.966c-4.873,0-8.828-3.955-8.828-8.828s3.955-8.828,8.828-8.828h52.966
		c4.873,0,8.828,3.955,8.828,8.828S287.356,52.966,282.483,52.966z"/>
</g>
<g>
</g>
<g>
</g>
<g>
</g>
<g>
</g>
<g>
</g>
<g>
</g>
<g>
</g>
<g>
</g>
<g>
</g>
<g>
</g>
<g>
</g>
<g>
</g>
<g>
</g>
<g>
</g>
<g>
</g>
</svg>
