<svg height="512pt" viewBox="0 0 512 512" width="512pt" xmlns="http://www.w3.org/2000/svg"><path d="m512 48c0-26.507812-21.492188-48-48-48h-416c-26.507812 0-48 21.492188-48 48v240h512zm0 0" fill="#b0bec5"/><path d="m0 272v192c0 26.507812 21.492188 48 48 48h416c26.507812 0 48-21.492188 48-48v-192zm0 0" fill="#ffd54f"/><path d="m128 64h256v160h-256zm0 0" fill="#80deea"/><g fill="#fff"><path d="m64 64h32v32h-32zm0 0"/><path d="m64 192h32v32h-32zm0 0"/><path d="m416 64h32v32h-32zm0 0"/><path d="m416 192h32v32h-32zm0 0"/></g><path d="m128 320h-32v32h-32v32h32v32h32v-32h32v-32h-32zm0 0" fill="#57565c"/><path d="m448 352h-32v-32h-32v32h-32v32h32v32h32v-32h32zm0 0" fill="#57565c"/><path d="m192 320h128v128h-128zm0 0" fill="#ffb300"/><path d="m128 64h256v32h-256zm0 0" fill="#4dd0e1"/></svg>