<svg id="icons" enable-background="new 0 0 64 64" height="512" viewBox="0 0 64 64" width="512" xmlns="http://www.w3.org/2000/svg"><path d="m27.002 59.994c-.065 0-.131-.006-.197-.02-.541-.107-.893-.635-.784-1.176l1-5c.108-.543.635-.896 1.177-.785.541.109.893.635.784 1.178l-1 5c-.095.475-.513.803-.98.803z" fill="#545c66"/><path d="m36.998 59.994c-.467 0-.885-.328-.979-.803l-1-5c-.108-.543.243-1.068.784-1.178.549-.111 1.069.244 1.177.785l1 5c.108.541-.243 1.068-.784 1.176-.067.014-.133.02-.198.02z" fill="#545c66"/><path d="m36 53.994 1 5h-9.99l1-5z" fill="#545c66"/><path d="m46 43.006v6.988h-27.939-.051v-6.988-8c0-1.1.9-2 2-2h23.99c1.101 0 2 .9 2 2z" fill="#5d9cec"/><path d="m46 49.994v2c0 1.1-.899 2-2 2h-8-7.99-8c-1.1 0-2-.9-2-2v-2h.051z" fill="#656d78"/><path d="m49.25 15.016c7.62.13 13.75 6.339 13.75 13.99 0 7.73-6.26 14-14 14h-2.99-.01v-8c0-1.1-.899-2-2-2h-23.99c-1.1 0-2 .9-2 2v8h-.01-6c-6.069 0-11-4.93-11-11 0-6.08 4.931-11 11-11h1.11c1-9.551 9.08-17 18.89-17 7.641 0 14.23 4.51 17.25 11.01z" fill="#e6e9ed"/><g fill="#5d9cec"><path d="m36.001 29.002c-.553 0-1-.447-1-1v-10.002c0-.553.447-1 1-1s1 .447 1 1v10.002c0 .553-.447 1-1 1z"/><path d="m38.001 21c-.256 0-.512-.098-.707-.293l-2-2c-.391-.391-.391-1.023 0-1.414s1.023-.391 1.414 0l2 2c.391.391.391 1.023 0 1.414-.195.195-.451.293-.707.293z"/><path d="m34.001 21c-.256 0-.512-.098-.707-.293-.391-.391-.391-1.023 0-1.414l2-2c.391-.391 1.023-.391 1.414 0s.391 1.023 0 1.414l-2 2c-.195.195-.451.293-.707.293z"/><path d="m27.998 29.002c-.553 0-1-.447-1-1v-10.002c0-.553.447-1 1-1s1 .447 1 1v10.002c0 .553-.447 1-1 1z"/><path d="m27.998 29.002c-.256 0-.512-.098-.707-.293l-2-2c-.391-.391-.391-1.023 0-1.414s1.023-.391 1.414 0l2 2c.391.391.391 1.023 0 1.414-.195.195-.451.293-.707.293z"/><path d="m27.998 29.002c-.256 0-.512-.098-.707-.293-.391-.391-.391-1.023 0-1.414l2-2c.391-.391 1.023-.391 1.414 0s.391 1.023 0 1.414l-2 2c-.195.195-.451.293-.707.293z"/></g><path d="m43.992 54.994h-23.984c-1.654 0-3-1.346-3-3v-16.986c0-1.654 1.346-3 3-3h23.984c1.654 0 3 1.346 3 3v16.986c0 1.654-1.346 3-3 3zm-23.984-20.986c-.552 0-1 .447-1 1v16.986c0 .553.448 1 1 1h23.984c.552 0 1-.447 1-1v-16.986c0-.553-.448-1-1-1z" fill="#656d78"/><path d="m39 59.994h-14c-.553 0-1-.447-1-1s.447-1 1-1h14c.553 0 1 .447 1 1s-.447 1-1 1z" fill="#656d78"/><path d="m32.03 53.494c-.553 0-1.005-.447-1.005-1s.442-1 .994-1h.011c.552 0 1 .447 1 1s-.448 1-1 1z" fill="#545c66"/></svg>