<svg height="512pt" viewBox="-96 0 512 512" width="512pt" xmlns="http://www.w3.org/2000/svg"><path d="m288 512h-256c-17.679688 0-32-14.320312-32-32v-448c0-17.679688 14.320312-32 32-32h256c17.679688 0 32 14.320312 32 32v448c0 17.679688-14.320312 32-32 32zm0 0" fill="#039be5"/><g fill="#fff"><path d="m128 64h128v32h-128zm0 0"/><path d="m64 64h32v32h-32zm0 0"/><path d="m64 128h192v32h-192zm0 0"/><path d="m64 192h192v32h-192zm0 0"/></g><path d="m224 384c0 35.347656-28.652344 64-64 64s-64-28.652344-64-64 28.652344-64 64-64 64 28.652344 64 64zm0 0" fill="#ffca28"/><path d="m160 416c-29.726562 0-54.574219-20.480469-61.726562-48-1.34375 5.152344-2.273438 10.449219-2.273438 16 0 35.296875 28.703125 64 64 64s64-28.703125 64-64c0-5.550781-.929688-10.847656-2.273438-16-7.152343 27.519531-32 48-61.726562 48zm0 0" fill="#e8a600"/></svg>