<?xml version="1.0" encoding="iso-8859-1"?>
<!-- Generator: Adobe Illustrator 19.0.0, SVG Export Plug-In . SVG Version: 6.00 Build 0)  -->
<svg version="1.1" id="Capa_1" xmlns="http://www.w3.org/2000/svg" xmlns:xlink="http://www.w3.org/1999/xlink" x="0px" y="0px"
	 viewBox="0 0 512 512" style="enable-background:new 0 0 512 512;" xml:space="preserve">
<path style="fill:#F1F1F6;" d="M512,186v260c0,8.28-6.72,15-15,15H15c-8.28,0-15-6.72-15-15V186c0-8.28,6.72-15,15-15h482
	C505.28,171,512,177.72,512,186z"/>
<g>
	<path style="fill:#D4D6E1;" d="M497,171H256v290h241c8.28,0,15-6.72,15-15V186C512,177.72,505.28,171,497,171z"/>
	<polygon style="fill:#D4D6E1;" points="512,231 374.67,231 374.67,171 344.67,171 344.67,231 237.33,231 237.33,171 207.33,171 
		207.33,231 100,231 100,171 70,171 70,231 0,231 0,261 70,261 70,461 100,461 100,261 207.33,261 207.33,461 237.33,461 
		237.33,261 344.67,261 344.67,461 374.67,461 374.67,261 512,261 	"/>
</g>
<polygon style="fill:#B5B8C6;" points="374.67,231 374.67,171 344.67,171 344.67,231 256,231 256,261 344.67,261 344.67,461 
	374.67,461 374.67,261 512,261 512,231 "/>
<path style="fill:#2E86FD;" d="M497,51H15C6.716,51,0,57.716,0,66v135h512V66C512,57.716,505.284,51,497,51z"/>
<path style="fill:#2962E0;" d="M512,66c0-8.284-6.716-15-15-15H256v150h256V66z"/>
<path style="fill:#AAF3FE;" d="M141,51H15C6.716,51,0,57.716,0,66v75h126c8.284,0,15-6.716,15-15V51z"/>
<path style="fill:#2962E0;" d="M226,141h-50c-8.284,0-15-6.716-15-15s6.716-15,15-15h50c8.284,0,15,6.716,15,15S234.284,141,226,141
	z"/>
<g>
	<path style="fill:#264CC6;" d="M447,141h-50c-8.284,0-15-6.716-15-15s6.716-15,15-15h50c8.284,0,15,6.716,15,15
		S455.284,141,447,141z"/>
	<path style="fill:#264CC6;" d="M336.5,141h-50c-8.284,0-15-6.716-15-15s6.716-15,15-15h50c8.284,0,15,6.716,15,15
		S344.784,141,336.5,141z"/>
</g>
<g>
</g>
<g>
</g>
<g>
</g>
<g>
</g>
<g>
</g>
<g>
</g>
<g>
</g>
<g>
</g>
<g>
</g>
<g>
</g>
<g>
</g>
<g>
</g>
<g>
</g>
<g>
</g>
<g>
</g>
</svg>
