<?xml version="1.0" encoding="iso-8859-1"?>
<!-- Generator: Adobe Illustrator 19.0.0, SVG Export Plug-In . SVG Version: 6.00 Build 0)  -->
<svg version="1.1" id="Capa_1" xmlns="http://www.w3.org/2000/svg" xmlns:xlink="http://www.w3.org/1999/xlink" x="0px" y="0px"
	 viewBox="0 0 512 512" style="enable-background:new 0 0 512 512;" xml:space="preserve">
<path style="fill:#ECF0F1;" d="M483.31,512H28.69C12.844,512,0,499.156,0,483.31V105.931h512V483.31
	C512,499.156,499.156,512,483.31,512z"/>
<path style="fill:#687492;" d="M512,105.931H0V28.69C0,12.844,12.844,0,28.69,0H483.31C499.156,0,512,12.844,512,28.69V105.931z"/>
<rect x="35.31" y="35.31" style="fill:#E64C3C;" width="35.31" height="35.31"/>
<rect x="105.931" y="35.31" style="fill:#F0C419;" width="35.31" height="35.31"/>
<rect x="176.552" y="35.31" style="fill:#24AE5F;" width="35.31" height="35.31"/>
<path style="fill:#F0C419;" d="M450.207,388.414h-70.621c-9.754,0-17.655-7.901-17.655-17.655l0,0
	c0-9.754,7.901-17.655,17.655-17.655h70.621c9.754,0,17.655,7.901,17.655,17.655l0,0
	C467.862,380.513,459.961,388.414,450.207,388.414z"/>
<rect x="44.138" y="353.103" style="fill:#4482C3;" width="273.655" height="35.31"/>
<rect x="44.138" y="150.069" style="fill:#25B899;" width="423.724" height="167.724"/>
<g>
	<path style="fill:#FFFFFF;" d="M306.379,249.759l-35.31-35.31c-3.443-3.452-9.039-3.452-12.482,0l-29.069,29.069l-11.414-11.414
		c-3.443-3.452-9.039-3.452-12.482,0l-35.31,35.31c-3.452,3.452-3.452,9.031,0,12.482c1.721,1.721,3.981,2.586,6.241,2.586
		c2.26,0,4.52-0.865,6.241-2.586l29.069-29.069l29.069,29.069c1.721,1.721,3.981,2.586,6.241,2.586c2.26,0,4.52-0.865,6.241-2.586
		c3.452-3.452,3.452-9.031,0-12.482L241.999,256l22.828-22.828l29.069,29.069c1.721,1.721,3.981,2.586,6.241,2.586
		c2.26,0,4.52-0.865,6.241-2.586C309.831,258.79,309.831,253.21,306.379,249.759z"/>
	<path style="fill:#FFFFFF;" d="M344.073,220.69h-17.249c-4.988,0-9.031-4.043-9.031-9.031V194.41c0-4.988,4.043-9.031,9.031-9.031
		h17.249c4.988,0,9.031,4.043,9.031,9.031v17.249C353.103,216.647,349.06,220.69,344.073,220.69z"/>
</g>
<g>
	<path style="fill:#BDC3C7;" d="M344.276,441.379H167.724c-4.873,0-8.828-3.946-8.828-8.828c0-4.882,3.955-8.828,8.828-8.828
		h176.552c4.873,0,8.828,3.946,8.828,8.828C353.103,437.433,349.149,441.379,344.276,441.379z"/>
	<path style="fill:#BDC3C7;" d="M388.414,476.69H123.586c-4.873,0-8.828-3.946-8.828-8.828c0-4.882,3.955-8.828,8.828-8.828h264.828
		c4.873,0,8.828,3.946,8.828,8.828C397.241,472.744,393.287,476.69,388.414,476.69z"/>
</g>
<g>
</g>
<g>
</g>
<g>
</g>
<g>
</g>
<g>
</g>
<g>
</g>
<g>
</g>
<g>
</g>
<g>
</g>
<g>
</g>
<g>
</g>
<g>
</g>
<g>
</g>
<g>
</g>
<g>
</g>
</svg>
