<svg height="512pt" viewBox="0 -27 512 512" width="512pt" xmlns="http://www.w3.org/2000/svg"><path d="m344.277344 361.929688 90.617187 94.246093c2.464844 2.671875 6.3125 3.558594 9.699219 2.234375 3.386719-1.324218 5.613281-4.585937 5.613281-8.222656v-88.257812h26.484375c9.363282.003906 18.347656-3.714844 24.96875-10.339844 6.625-6.621094 10.34375-15.601563 10.339844-24.96875v-291.3125c.003906-9.363282-3.714844-18.347656-10.339844-24.96875-6.621094-6.625-15.605468-10.34375025-24.96875-10.339844h-441.382812c-9.363282-.00390625-18.347656 3.714844-24.96875 10.339844-6.625 6.621094-10.34375025 15.605468-10.339844 24.96875v291.3125c-.00390625 9.367187 3.714844 18.347656 10.339844 24.96875 6.621094 6.625 15.605468 10.34375 24.96875 10.339844zm0 0" fill="#f0c419"/><path d="m512 35.308594v291.3125c.003906 9.367187-3.714844 18.347656-10.339844 24.96875-6.621094 6.625-15.605468 10.34375-24.96875 10.339844h-26.484375v88.277343c.007813 3.628907-2.207031 6.890625-5.585937 8.21875-3.375 1.328125-7.222656.449219-9.6875-2.214843l-90.65625-94.28125h-88.277344v-361.929688h220.691406c9.363282-.00390625 18.347656 3.714844 24.96875 10.339844 6.625 6.621094 10.34375 15.605468 10.339844 24.96875zm0 0" fill="#f29c1f"/><path d="m238.34375 264.828125h35.3125c4.875 0 8.828125 3.953125 8.828125 8.828125v35.308594c0 4.875-3.953125 8.828125-8.828125 8.828125h-35.3125c-4.875 0-8.828125-3.953125-8.828125-8.828125v-35.308594c0-4.875 3.953125-8.828125 8.828125-8.828125zm0 0" fill="#35495e"/><path d="m238.34375 44.136719h35.3125c4.875 0 8.828125 3.953125 8.828125 8.828125v158.898437c0 4.875-3.953125 8.828125-8.828125 8.828125h-35.3125c-4.875 0-8.828125-3.953125-8.828125-8.828125v-158.898437c0-4.875 3.953125-8.828125 8.828125-8.828125zm0 0" fill="#35495e"/><path d="m35.308594 61.792969c-4.875 0-8.824219-3.953125-8.824219-8.828125v-17.65625c0-4.875 3.949219-8.824219 8.824219-8.824219 4.878906 0 8.828125 3.949219 8.828125 8.824219v17.65625c0 4.875-3.949219 8.828125-8.828125 8.828125zm0 0" fill="#fff"/><path d="m35.308594 335.449219c-4.875 0-8.824219-3.953125-8.824219-8.828125v-238.34375c0-4.875 3.949219-8.828125 8.824219-8.828125 4.878906 0 8.828125 3.953125 8.828125 8.828125v238.34375c0 4.875-3.949219 8.828125-8.828125 8.828125zm0 0" fill="#fff"/><g fill="#2c3e50"><path d="m282.484375 273.65625v35.308594c-.015625 4.871094-3.960937 8.8125-8.828125 8.828125h-17.65625v-52.964844h17.65625c4.867188.011719 8.8125 3.957031 8.828125 8.828125zm0 0"/><path d="m282.484375 52.964844v158.898437c-.015625 4.867188-3.960937 8.8125-8.828125 8.828125h-17.65625v-176.554687h17.65625c4.867188.015625 8.8125 3.960937 8.828125 8.828125zm0 0"/></g></svg>