<?xml version="1.0" encoding="iso-8859-1"?>
<!-- Generator: Adobe Illustrator 19.0.0, SVG Export Plug-In . SVG Version: 6.00 Build 0)  -->
<svg version="1.1" id="Layer_1" xmlns="http://www.w3.org/2000/svg" xmlns:xlink="http://www.w3.org/1999/xlink" x="0px" y="0px"
	 viewBox="0 0 512 512" style="enable-background:new 0 0 512 512;" xml:space="preserve">
<g>
	<path style="fill:#35495E;" d="M425.22,498.983c-23.925,0-43.39-19.465-43.39-43.39c0-23.925,19.465-43.39,43.39-43.39
		s43.39,19.465,43.39,43.39C468.61,479.518,449.145,498.983,425.22,498.983"/>
	<path style="fill:#5D6D7E;" d="M425.22,412.203c2.968,0,5.875,0.304,8.678,0.876c-19.777,4.035-34.712,21.565-34.712,42.513
		c0,20.949,14.935,38.478,34.712,42.513c-2.803,0.573-5.71,0.876-8.678,0.876c-23.925,0-43.39-19.465-43.39-43.39
		C381.831,431.668,401.295,412.203,425.22,412.203"/>
	<path style="fill:#35495E;" d="M260.339,498.983c-23.925,0-43.39-19.465-43.39-43.39c0-23.925,19.465-43.39,43.39-43.39
		s43.39,19.465,43.39,43.39C303.729,479.518,284.264,498.983,260.339,498.983"/>
	<path style="fill:#283747;" d="M425.22,412.203c-2.968,0-5.875,0.304-8.678,0.876c19.777,4.035,34.712,21.565,34.712,42.513
		c0,20.949-14.935,38.478-34.712,42.513c2.803,0.573,5.71,0.876,8.678,0.876c23.925,0,43.39-19.465,43.39-43.39
		C468.61,431.668,449.145,412.203,425.22,412.203"/>
	<path style="fill:#5D6D7E;" d="M260.339,412.203c2.968,0,5.875,0.304,8.678,0.876c-19.777,4.035-34.712,21.565-34.712,42.513
		c0,20.949,14.935,38.478,34.712,42.513c-2.803,0.573-5.71,0.876-8.678,0.876c-23.925,0-43.39-19.465-43.39-43.39
		C216.949,431.668,236.414,412.203,260.339,412.203"/>
	<path style="fill:#283747;" d="M260.339,412.203c-2.968,0-5.875,0.304-8.678,0.876c19.777,4.035,34.712,21.565,34.712,42.513
		c0,20.949-14.935,38.478-34.712,42.513c2.803,0.573,5.71,0.876,8.678,0.876c23.925,0,43.39-19.465,43.39-43.39
		C303.729,431.668,284.264,412.203,260.339,412.203"/>
	<path style="fill:#ECF0F1;" d="M138.847,117.153c-4.799,0-8.678-3.888-8.678-8.678V82.441c0-19.144-15.568-34.712-34.712-34.712
		c-4.799,0-8.678-3.888-8.678-8.678s3.879-8.678,8.678-8.678c28.715,0,52.068,23.352,52.068,52.068v26.034
		C147.525,113.265,143.646,117.153,138.847,117.153"/>
	<path style="fill:#BDC3C7;" d="M485.966,429.559H190.915c-3.983,0-7.446-2.708-8.418-6.569l-17.356-69.424
		c-1.163-4.651,1.666-9.364,6.318-10.526c4.634-1.172,9.355,1.666,10.518,6.309l15.716,62.855h288.273
		c4.799,0,8.678,3.888,8.678,8.678S490.765,429.559,485.966,429.559"/>
	<polygon style="fill:#ECF0F1;" points="459.932,351.458 164.881,351.458 121.492,143.186 494.644,143.186 	"/>
	<polygon style="fill:#B1B4B5;" points="468.61,143.186 433.898,351.458 459.932,351.458 494.644,143.186 	"/>
	<polygon style="fill:#F4F7F7;" points="147.525,143.186 182.237,351.458 156.203,351.458 121.492,143.186 	"/>
	<g>
		<polygon style="fill:#BDC3C7;" points="104.136,143.186 512,143.186 512,108.475 104.136,108.475 		"/>
		<path style="fill:#BDC3C7;" d="M78.102,65.085H26.034C11.681,65.085,0,53.404,0,39.051s11.681-26.034,26.034-26.034h52.068
			c14.353,0,26.034,11.681,26.034,26.034S92.455,65.085,78.102,65.085"/>
	</g>
	<path style="fill:#8E9295;" d="M78.102,13.017H60.746c14.353,0,26.034,11.681,26.034,26.034S75.099,65.085,60.746,65.085h17.356
		c14.353,0,26.034-11.681,26.034-26.034S92.455,13.017,78.102,13.017"/>
	<path style="fill:#CBCFD2;" d="M26.034,65.085H43.39c-14.353,0-26.034-11.681-26.034-26.034S29.036,13.017,43.39,13.017H26.034
		C11.681,13.017,0,24.697,0,39.051S11.681,65.085,26.034,65.085"/>
	<g>
		<path style="fill:#BDC3C7;" d="M208.271,299.39c-4.799,0-8.678-3.888-8.678-8.678v-86.78c0-4.79,3.879-8.678,8.678-8.678
			c4.799,0,8.678,3.888,8.678,8.678v86.78C216.949,295.502,213.07,299.39,208.271,299.39"/>
		<path style="fill:#BDC3C7;" d="M260.339,299.39c-4.799,0-8.678-3.888-8.678-8.678v-86.78c0-4.79,3.879-8.678,8.678-8.678
			s8.678,3.888,8.678,8.678v86.78C269.017,295.502,265.138,299.39,260.339,299.39"/>
		<path style="fill:#BDC3C7;" d="M312.407,299.39c-4.799,0-8.678-3.888-8.678-8.678v-86.78c0-4.79,3.879-8.678,8.678-8.678
			c4.799,0,8.678,3.888,8.678,8.678v86.78C321.085,295.502,317.206,299.39,312.407,299.39"/>
		<path style="fill:#BDC3C7;" d="M364.475,299.39c-4.799,0-8.678-3.888-8.678-8.678v-86.78c0-4.79,3.879-8.678,8.678-8.678
			s8.678,3.888,8.678,8.678v86.78C373.153,295.502,369.273,299.39,364.475,299.39"/>
		<path style="fill:#BDC3C7;" d="M416.542,299.39c-4.799,0-8.678-3.888-8.678-8.678v-86.78c0-4.79,3.879-8.678,8.678-8.678
			c4.799,0,8.678,3.888,8.678,8.678v86.78C425.22,295.502,421.341,299.39,416.542,299.39"/>
	</g>
	<polygon style="fill:#8E9295;" points="485.966,143.186 512,143.186 512,108.475 485.966,108.475 	"/>
	<polygon style="fill:#CBCFD2;" points="104.136,143.186 130.169,143.186 130.169,108.475 104.136,108.475 	"/>
</g>
<g>
</g>
<g>
</g>
<g>
</g>
<g>
</g>
<g>
</g>
<g>
</g>
<g>
</g>
<g>
</g>
<g>
</g>
<g>
</g>
<g>
</g>
<g>
</g>
<g>
</g>
<g>
</g>
<g>
</g>
</svg>
