<?xml version="1.0" encoding="iso-8859-1"?>
<!-- Generator: Adobe Illustrator 19.0.0, SVG Export Plug-In . SVG Version: 6.00 Build 0)  -->
<svg version="1.1" id="Capa_1" xmlns="http://www.w3.org/2000/svg" xmlns:xlink="http://www.w3.org/1999/xlink" x="0px" y="0px"
	 viewBox="0 0 58 58" style="enable-background:new 0 0 58 58;" xml:space="preserve">
<path style="fill:#556080;" d="M51,41.016v-30c0-1.666-1.351-3.017-3.017-3H10.017C8.351,8,7,9.351,7,11.017v3v16v11L51,41.016z"/>
<path style="fill:none;stroke:#7F6E5D;stroke-width:2;stroke-linecap:round;stroke-miterlimit:10;" d="M35,8.017V7c0-3.3-2.7-6-6-6
	l0,0c-3.3,0-6,2.7-6,6v1.017"/>
<rect x="14" y="8.017" style="fill:#9777A8;" width="6" height="33"/>
<rect x="38" y="8.017" style="fill:#9777A8;" width="6" height="33"/>
<path style="fill:#FFFFFF;" d="M28,17.35V8.017c0-0.552-0.447-1-1-1s-1,0.448-1,1v9.333l-2,2.667v12h6v-12L28,17.35z"/>
<path style="fill:#546A79;" d="M52,41.017H6c-3.3,0-6,2.7-6,6s2.7,6,6,6h46c3.3,0,6-2.7,6-6S55.3,41.017,52,41.017z M52,50.017H6
	c-1.654,0-3-1.346-3-3s1.346-3,3-3h46c1.654,0,3,1.346,3,3S53.654,50.017,52,50.017z"/>
<path style="fill:#38454F;" d="M7,48.017L7,48.017c-0.55,0-1-0.45-1-1l0,0c0-0.55,0.45-1,1-1h0c0.55,0,1,0.45,1,1l0,0
	C8,47.567,7.55,48.017,7,48.017z"/>
<path style="fill:#38454F;" d="M11,48.017L11,48.017c-0.55,0-1-0.45-1-1l0,0c0-0.55,0.45-1,1-1h0c0.55,0,1,0.45,1,1l0,0
	C12,47.567,11.55,48.017,11,48.017z"/>
<path style="fill:#38454F;" d="M15,48.017L15,48.017c-0.55,0-1-0.45-1-1l0,0c0-0.55,0.45-1,1-1h0c0.55,0,1,0.45,1,1l0,0
	C16,47.567,15.55,48.017,15,48.017z"/>
<path style="fill:#38454F;" d="M19,48.017L19,48.017c-0.55,0-1-0.45-1-1l0,0c0-0.55,0.45-1,1-1h0c0.55,0,1,0.45,1,1l0,0
	C20,47.567,19.55,48.017,19,48.017z"/>
<path style="fill:#38454F;" d="M23,48.017L23,48.017c-0.55,0-1-0.45-1-1l0,0c0-0.55,0.45-1,1-1h0c0.55,0,1,0.45,1,1l0,0
	C24,47.567,23.55,48.017,23,48.017z"/>
<path style="fill:#38454F;" d="M27,48.017L27,48.017c-0.55,0-1-0.45-1-1l0,0c0-0.55,0.45-1,1-1h0c0.55,0,1,0.45,1,1l0,0
	C28,47.567,27.55,48.017,27,48.017z"/>
<path style="fill:#38454F;" d="M31,48.017L31,48.017c-0.55,0-1-0.45-1-1l0,0c0-0.55,0.45-1,1-1h0c0.55,0,1,0.45,1,1l0,0
	C32,47.567,31.55,48.017,31,48.017z"/>
<path style="fill:#38454F;" d="M35,48.017L35,48.017c-0.55,0-1-0.45-1-1l0,0c0-0.55,0.45-1,1-1h0c0.55,0,1,0.45,1,1l0,0
	C36,47.567,35.55,48.017,35,48.017z"/>
<path style="fill:#38454F;" d="M39,48.017L39,48.017c-0.55,0-1-0.45-1-1l0,0c0-0.55,0.45-1,1-1l0,0c0.55,0,1,0.45,1,1l0,0
	C40,47.567,39.55,48.017,39,48.017z"/>
<path style="fill:#38454F;" d="M43,48.017L43,48.017c-0.55,0-1-0.45-1-1l0,0c0-0.55,0.45-1,1-1h0c0.55,0,1,0.45,1,1l0,0
	C44,47.567,43.55,48.017,43,48.017z"/>
<path style="fill:#38454F;" d="M47,48.017L47,48.017c-0.55,0-1-0.45-1-1l0,0c0-0.55,0.45-1,1-1l0,0c0.55,0,1,0.45,1,1l0,0
	C48,47.567,47.55,48.017,47,48.017z"/>
<path style="fill:#38454F;" d="M51,48.017L51,48.017c-0.55,0-1-0.45-1-1l0,0c0-0.55,0.45-1,1-1l0,0c0.55,0,1,0.45,1,1l0,0
	C52,47.567,51.55,48.017,51,48.017z"/>
<rect x="7" y="53" style="fill:#BDC3C7;" width="3" height="5"/>
<rect x="48" y="53" style="fill:#BDC3C7;" width="3" height="5"/>
<g>
</g>
<g>
</g>
<g>
</g>
<g>
</g>
<g>
</g>
<g>
</g>
<g>
</g>
<g>
</g>
<g>
</g>
<g>
</g>
<g>
</g>
<g>
</g>
<g>
</g>
<g>
</g>
<g>
</g>
</svg>
