<svg height="512pt" viewBox="0 0 512 512" width="512pt" xmlns="http://www.w3.org/2000/svg"><path d="m117.460938 234.917969c-64.769532 0-117.460938-52.691407-117.460938-117.457031 0-64.769532 52.691406-117.460938 117.460938-117.460938 64.765624 0 117.457031 52.691406 117.457031 117.460938 0 64.765624-52.691407 117.457031-117.457031 117.457031zm0 0" fill="#e4eaf8"/><path d="m30.90625 117.460938c0-59.53125 44.515625-108.855469 102.007812-116.441407-5.058593-.667969-10.21875-1.019531-15.453124-1.019531-64.769532 0-117.460938 52.691406-117.460938 117.460938 0 64.765624 52.691406 117.457031 117.460938 117.457031 5.234374 0 10.394531-.351563 15.453124-1.019531-57.492187-7.585938-102.007812-56.910157-102.007812-116.4375zm0 0" fill="#c7d2e5"/><path d="m117.460938 36.140625c-44.839844 0-81.320313 36.480469-81.320313 81.320313 0 44.835937 36.480469 81.316406 81.320313 81.316406 44.835937 0 81.316406-36.480469 81.316406-81.316406 0-44.839844-36.480469-81.320313-81.316406-81.320313zm0 0" fill="#c7d2e5"/><path d="m67.050781 117.460938c0-39.554688 28.390625-72.589844 65.863281-79.828126-5.007812-.96875-10.171874-1.492187-15.453124-1.492187-44.839844 0-81.320313 36.480469-81.320313 81.320313 0 44.839843 36.480469 81.316406 81.320313 81.316406 5.28125 0 10.445312-.523438 15.453124-1.492188-37.472656-7.242187-65.863281-40.273437-65.863281-79.824218zm0 0" fill="#bac7db"/><path d="m117.460938 511.398438c-64.769532 0-117.460938-52.691407-117.460938-117.460938 0-64.765625 52.691406-117.457031 117.460938-117.457031 64.765624 0 117.457031 52.691406 117.457031 117.457031 0 64.769531-52.691407 117.460938-117.457031 117.460938zm0 0" fill="#e4eaf8"/><path d="m30.90625 393.9375c0-59.527344 44.515625-108.851562 102.007812-116.441406-5.058593-.667969-10.21875-1.015625-15.453124-1.015625-64.769532 0-117.460938 52.691406-117.460938 117.457031 0 64.769531 52.691406 117.460938 117.460938 117.460938 5.234374 0 10.394531-.351563 15.453124-1.019532-57.492187-7.589844-102.007812-56.910156-102.007812-116.441406zm0 0" fill="#c7d2e5"/><path d="m117.460938 312.621094c-44.839844 0-81.320313 36.480468-81.320313 81.316406 0 44.839844 36.480469 81.320312 81.320313 81.320312 44.835937 0 81.316406-36.480468 81.316406-81.320312 0-44.835938-36.480469-81.316406-81.316406-81.316406zm0 0" fill="#c7d2e5"/><path d="m67.050781 393.9375c0-39.550781 28.390625-72.585938 65.863281-79.824219-5.007812-.96875-10.171874-1.492187-15.453124-1.492187-44.839844 0-81.320313 36.480468-81.320313 81.320312 0 44.835938 36.480469 81.316406 81.320313 81.316406 5.28125 0 10.445312-.523437 15.453124-1.492187-37.472656-7.242187-65.863281-40.273437-65.863281-79.828125zm0 0" fill="#bac7db"/><path d="m113.554688 158.753906-43.421876-43.417968c-6.753906-6.757813-6.753906-17.710938 0-24.464844 6.753907-6.757813 17.710938-6.757813 24.464844 0l31.1875 31.1875 54.90625-54.90625c6.753906-6.753906 17.707032-6.753906 24.464844 0 6.753906 6.753906 6.753906 17.707031 0 24.464844l-67.140625 67.136718c-6.753906 6.757813-17.707031 6.753906-24.460937 0zm0 0" fill="#1dd1a1"/><path d="m113.554688 435.234375-43.421876-43.417969c-6.753906-6.757812-6.753906-17.710937 0-24.464844 6.753907-6.753906 17.710938-6.753906 24.464844 0l31.1875 31.1875 54.90625-54.90625c6.753906-6.753906 17.707032-6.753906 24.464844 0 6.753906 6.753907 6.753906 17.710938 0 24.464844l-67.140625 67.136719c-6.753906 6.757813-17.707031 6.753906-24.460937 0zm0 0" fill="#1dd1a1"/><path d="m98.292969 115.335938c-6.125-6.125-6.675781-15.695313-1.695313-22.464844l-2-2c-6.753906-6.757813-17.710937-6.757813-24.464844 0-6.753906 6.753906-6.753906 17.707031 0 24.464844l43.421876 43.417968c6.753906 6.753906 17.707031 6.757813 24.460937 0l1.847656-1.847656zm0 0" fill="#15ba8b"/><path d="m98.292969 391.816406c-6.125-6.125-6.675781-15.695312-1.695313-22.464844l-2-2c-6.753906-6.753906-17.710937-6.753906-24.464844 0-6.753906 6.753907-6.753906 17.707032 0 24.464844l43.421876 43.417969c6.753906 6.753906 17.707031 6.757813 24.460937 0l1.847656-1.847656zm0 0" fill="#15ba8b"/><path d="m394.539062 234.917969c-64.765624 0-117.457031-52.691407-117.457031-117.457031 0-64.769532 52.691407-117.460938 117.457031-117.460938 64.769532 0 117.460938 52.691406 117.460938 117.460938 0 64.765624-52.691406 117.457031-117.460938 117.457031zm0 0" fill="#e4eaf8"/><path d="m307.988281 117.460938c0-59.53125 44.515625-108.855469 102.003907-116.441407-5.058594-.667969-10.214844-1.019531-15.453126-1.019531-64.765624 0-117.457031 52.691406-117.457031 117.460938 0 64.765624 52.691407 117.457031 117.457031 117.457031 5.238282 0 10.394532-.351563 15.453126-1.019531-57.488282-7.585938-102.003907-56.910157-102.003907-116.4375zm0 0" fill="#c7d2e5"/><path d="m394.539062 36.140625c-44.835937 0-81.316406 36.480469-81.316406 81.320313 0 44.835937 36.480469 81.316406 81.316406 81.316406 44.839844 0 81.320313-36.480469 81.320313-81.316406 0-44.839844-36.480469-81.320313-81.320313-81.320313zm0 0" fill="#c7d2e5"/><path d="m344.128906 117.460938c0-39.554688 28.394532-72.589844 65.863282-79.828126-5.003907-.96875-10.167969-1.492187-15.453126-1.492187-44.839843 0-81.316406 36.480469-81.316406 81.320313 0 44.839843 36.476563 81.316406 81.316406 81.316406 5.285157 0 10.449219-.523438 15.453126-1.492188-37.46875-7.242187-65.863282-40.273437-65.863282-79.824218zm0 0" fill="#bac7db"/><path d="m394.539062 511.398438c-64.765624 0-117.457031-52.691407-117.457031-117.460938 0-64.765625 52.691407-117.457031 117.457031-117.457031 64.769532 0 117.460938 52.691406 117.460938 117.457031 0 64.769531-52.691406 117.460938-117.460938 117.460938zm0 0" fill="#e4eaf8"/><path d="m307.988281 393.9375c0-59.527344 44.515625-108.851562 102.003907-116.441406-5.058594-.667969-10.214844-1.015625-15.453126-1.015625-64.765624 0-117.457031 52.691406-117.457031 117.457031 0 64.769531 52.691407 117.460938 117.457031 117.460938 5.238282 0 10.394532-.351563 15.453126-1.019532-57.488282-7.589844-102.003907-56.910156-102.003907-116.441406zm0 0" fill="#c7d2e5"/><path d="m394.539062 312.621094c-44.835937 0-81.316406 36.480468-81.316406 81.316406 0 44.839844 36.480469 81.320312 81.316406 81.320312 44.839844 0 81.320313-36.480468 81.320313-81.320312 0-44.835938-36.480469-81.316406-81.320313-81.316406zm0 0" fill="#c7d2e5"/><path d="m344.128906 393.9375c0-39.550781 28.394532-72.585938 65.863282-79.824219-5.003907-.96875-10.167969-1.492187-15.453126-1.492187-44.839843 0-81.316406 36.480468-81.316406 81.320312 0 44.835938 36.476563 81.316406 81.316406 81.316406 5.285157 0 10.449219-.523437 15.453126-1.492187-37.46875-7.242187-65.863282-40.273437-65.863282-79.828125zm0 0" fill="#bac7db"/></svg>