<?xml version="1.0" encoding="iso-8859-1"?>
<!-- Generator: Adobe Illustrator 19.0.0, SVG Export Plug-In . SVG Version: 6.00 Build 0)  -->
<svg version="1.1" id="Capa_1" xmlns="http://www.w3.org/2000/svg" xmlns:xlink="http://www.w3.org/1999/xlink" x="0px" y="0px"
	 viewBox="0 0 512.003 512.003" style="enable-background:new 0 0 512.003 512.003;" xml:space="preserve">
<g>
	<polygon style="fill:#336A93;" points="490.306,34.712 490.306,52.068 134.51,407.864 65.086,407.864 455.594,17.356 
		472.95,17.356 	"/>
	<polygon style="fill:#5496CE;" points="490.306,52.068 490.306,121.492 203.933,407.864 134.51,407.864 	"/>
	<polygon style="fill:#336A93;" points="490.306,121.492 490.306,190.915 273.357,407.864 203.933,407.864 	"/>
	<polygon style="fill:#5496CE;" points="490.306,190.915 490.306,260.339 342.781,407.864 273.357,407.864 	"/>
	<polygon style="fill:#336A93;" points="490.306,260.339 490.306,329.763 412.205,407.864 342.781,407.864 	"/>
	<polygon style="fill:#5496CE;" points="490.306,329.763 490.306,390.508 472.95,407.864 412.205,407.864 	"/>
	<g>
		<path style="fill:#FF6C77;" d="M21.696,468.61c-4.793,0-8.678-3.885-8.678-8.678v-8.678c0-4.793,3.885-8.678,8.678-8.678
			s8.678,3.885,8.678,8.678v8.678C30.374,464.725,26.489,468.61,21.696,468.61z"/>
		<path style="fill:#FF6C77;" d="M30.374,512h-8.678c-4.793,0-8.678-3.885-8.678-8.678v-8.678c0-4.793,3.885-8.678,8.678-8.678
			s8.678,3.885,8.678,8.678c4.793,0,8.678,3.885,8.678,8.678C39.052,508.115,35.167,512,30.374,512z"/>
		<path style="fill:#FF6C77;" d="M73.764,512h-8.678c-4.793,0-8.678-3.885-8.678-8.678c0-4.793,3.885-8.678,8.678-8.678h8.678
			c4.793,0,8.678,3.885,8.678,8.678C82.442,508.115,78.557,512,73.764,512z"/>
		<path style="fill:#FF6C77;" d="M117.154,512h-8.678c-4.793,0-8.678-3.885-8.678-8.678c0-4.793,3.885-8.678,8.678-8.678h8.678
			c4.793,0,8.678,3.885,8.678,8.678C125.832,508.115,121.946,512,117.154,512z"/>
		<path style="fill:#FF6C77;" d="M160.544,512h-8.678c-4.793,0-8.678-3.885-8.678-8.678c0-4.793,3.885-8.678,8.678-8.678h8.678
			c4.793,0,8.678,3.885,8.678,8.678C169.222,508.115,165.336,512,160.544,512z"/>
		<path style="fill:#FF6C77;" d="M203.933,512h-8.678c-4.793,0-8.678-3.885-8.678-8.678c0-4.793,3.885-8.678,8.678-8.678h8.678
			c4.793,0,8.678,3.885,8.678,8.678C212.611,508.115,208.726,512,203.933,512z"/>
		<path style="fill:#FF6C77;" d="M238.645,512c-2.297-0.034-4.497-0.933-6.161-2.517c-0.373-0.412-0.721-0.847-1.042-1.301
			c-0.33-0.484-0.593-1.01-0.784-1.564c-0.25-0.492-0.424-1.019-0.517-1.564c-0.098-0.573-0.156-1.152-0.173-1.733
			c0-4.793,3.885-8.678,8.678-8.678s8.678,3.885,8.678,8.678c-0.02,0.581-0.078,1.16-0.174,1.733
			c-0.096,0.544-0.272,1.071-0.521,1.564c-0.191,0.554-0.454,1.08-0.784,1.564c-0.343,0.432-0.691,0.864-1.038,1.301
			c-0.845,0.765-1.814,1.381-2.864,1.822C240.913,511.792,239.783,512.03,238.645,512L238.645,512z"/>
		<path style="fill:#FF6C77;" d="M273.357,512c-2.297-0.034-4.497-0.933-6.161-2.517c-1.599-1.654-2.501-3.86-2.517-6.161
			c0.012-1.135,0.247-2.256,0.691-3.301c0.42-1.062,1.04-2.033,1.826-2.861c0.411-0.375,0.845-0.723,1.301-1.042
			c0.483-0.329,1.007-0.592,1.559-0.784c0.492-0.25,1.02-0.424,1.564-0.517c2.856-0.527,5.792,0.344,7.898,2.343
			c0.784,0.829,1.402,1.8,1.822,2.86c0.445,1.044,0.681,2.166,0.695,3.301c-0.02,0.581-0.078,1.16-0.174,1.733
			c-0.096,0.544-0.272,1.071-0.521,1.564c-0.191,0.554-0.454,1.08-0.784,1.564c-0.343,0.432-0.691,0.864-1.038,1.301
			C277.854,511.066,275.654,511.965,273.357,512L273.357,512z"/>
		<path style="fill:#FF6C77;" d="M316.747,512h-8.678c-4.793,0-8.678-3.885-8.678-8.678c0-4.793,3.885-8.678,8.678-8.678h8.678
			c4.793,0,8.678,3.885,8.678,8.678C325.425,508.115,321.54,512,316.747,512z"/>
		<path style="fill:#FF6C77;" d="M360.137,512h-8.678c-4.793,0-8.678-3.885-8.678-8.678c0-4.793,3.885-8.678,8.678-8.678h8.678
			c4.793,0,8.678,3.885,8.678,8.678C368.815,508.115,364.93,512,360.137,512z"/>
		<path style="fill:#FF6C77;" d="M403.527,512h-8.678c-4.793,0-8.678-3.885-8.678-8.678c0-4.793,3.885-8.678,8.678-8.678h8.678
			c4.793,0,8.678,3.885,8.678,8.678C412.205,508.115,408.319,512,403.527,512z"/>
		<path style="fill:#FF6C77;" d="M446.917,512h-8.678c-4.793,0-8.678-3.885-8.678-8.678c0-4.793,3.885-8.678,8.678-8.678h8.678
			c4.793,0,8.678,3.885,8.678,8.678C455.594,508.115,451.709,512,446.917,512z"/>
		<path style="fill:#FF6C77;" d="M490.306,512h-8.678c-4.793,0-8.678-3.885-8.678-8.678c0-4.793,3.885-8.678,8.678-8.678
			c0-4.793,3.885-8.678,8.678-8.678c4.793,0,8.678,3.885,8.678,8.678v8.678C498.984,508.115,495.099,512,490.306,512z"/>
		<path style="fill:#FF6C77;" d="M490.306,468.61c-4.793,0-8.678-3.885-8.678-8.678v-8.678c0-4.793,3.885-8.678,8.678-8.678
			c4.793,0,8.678,3.885,8.678,8.678v8.678C498.984,464.725,495.099,468.61,490.306,468.61z"/>
	</g>
	<polygon style="fill:#336A93;" points="108.476,17.356 21.696,104.136 21.696,34.712 39.052,17.356 	"/>
	<polygon style="fill:#5496CE;" points="177.9,17.356 21.696,173.559 21.696,104.136 108.476,17.356 	"/>
	<polygon style="fill:#336A93;" points="247.323,17.356 21.696,242.983 21.696,173.559 177.9,17.356 	"/>
	<polygon style="fill:#5496CE;" points="316.747,17.356 21.696,312.407 21.696,242.983 247.323,17.356 	"/>
	<polygon style="fill:#336A93;" points="386.171,17.356 21.696,381.831 21.696,312.407 316.747,17.356 	"/>
	<polygon style="fill:#5496CE;" points="455.594,17.356 65.086,407.864 39.052,407.864 21.696,390.508 21.696,381.831 
		386.171,17.356 	"/>
	<g>
		<path style="fill:#FF6C77;" d="M481.628,0h17.356c4.793,0,8.678,3.885,8.678,8.678v17.356c0,4.793-3.885,8.678-8.678,8.678
			h-17.356c-4.793,0-8.678-3.885-8.678-8.678V8.678C472.95,3.885,476.836,0,481.628,0z"/>
		<path style="fill:#FF6C77;" d="M481.628,390.508h17.356c4.793,0,8.678,3.885,8.678,8.678v17.356c0,4.793-3.885,8.678-8.678,8.678
			h-17.356c-4.793,0-8.678-3.885-8.678-8.678v-17.356C472.95,394.394,476.836,390.508,481.628,390.508z"/>
		<path style="fill:#FF6C77;" d="M13.018,0h17.356c4.793,0,8.678,3.885,8.678,8.678v17.356c0,4.793-3.885,8.678-8.678,8.678H13.018
			c-4.793,0-8.678-3.885-8.678-8.678V8.678C4.34,3.885,8.225,0,13.018,0z"/>
		<path style="fill:#FF6C77;" d="M13.018,390.508h17.356c4.793,0,8.678,3.885,8.678,8.678v17.356c0,4.793-3.885,8.678-8.678,8.678
			H13.018c-4.793,0-8.678-3.885-8.678-8.678v-17.356C4.34,394.394,8.225,390.508,13.018,390.508z"/>
	</g>
</g>
<g>
</g>
<g>
</g>
<g>
</g>
<g>
</g>
<g>
</g>
<g>
</g>
<g>
</g>
<g>
</g>
<g>
</g>
<g>
</g>
<g>
</g>
<g>
</g>
<g>
</g>
<g>
</g>
<g>
</g>
</svg>
