<svg height="512" viewBox="0 0 42 59" width="512" xmlns="http://www.w3.org/2000/svg"><g id="Page-1" fill="none" fill-rule="evenodd"><g id="027---Filter-Water" fill-rule="nonzero"><path id="Shape" d="m39.95 30.43-5.65 25.44c-.3980224 1.8332263-2.0240808 3.1382424-3.9 3.13h-18.8c-1.87485142.0051886-3.49922731-1.2984771-3.9-3.13l-5.65-25.44c-.16995731-1.0472596.50742293-2.0449955 1.54349294-2.2734623 1.03607-.2284667 2.07025118.3918481 2.35650706 1.4134623l1.9 8.56 3.75 16.87h18.8l3.75-16.87 1.9-8.56c.118758-.7317747.6325545-1.3378264 1.3350283-1.5747404.7024738-.2369141 1.4783681-.0658194 2.0160529.4445655s.7489407 1.2763199.5489188 1.9901749z" fill="#547580"/><path id="Shape" d="m34.15 38.13-3.15 17.87h-20l-3.15-17.87c.69281259.5829005 1.57486819.8923313 2.48.87 2.67 0 2.67-2 5.33-2s2.67 2 5.33 2 2.67-2 5.34-2 2.66 2 5.33 2c.9081264.022103 1.7932413-.287154 2.49-.87z" fill="#2fa8cc"/><path id="Shape" d="m34.07 3.18-13.07 14.82-13.07-14.82c.67565115.55252923 1.52751106.84358137 2.4.82 2.67 0 2.67-2 5.33-2s2.67 2 5.33 2 2.67-2 5.34-2 2.66 2 5.33 2c.8755056.02340333 1.7304483-.26749003 2.41-.82z" fill="#b19046"/><path id="Shape" d="m7.91 3.17.02.01" fill="#b19046"/><circle id="Oval" cx="16" cy="50" fill="#9fc9d3" r="1"/><circle id="Oval" cx="26" cy="44" fill="#9fc9d3" r="1"/><g fill="#e4c05c"><circle id="Oval" cx="26" cy="6" r="1"/><circle id="Oval" cx="16" cy="6" r="1"/><circle id="Oval" cx="22" cy="12" r="1"/><circle id="Oval" cx="20" cy="8" r="1"/></g><path id="Shape" d="m16 28c-1.1045695 0-2-.8954305-2-2v-3.873c-.000005-.2419947-.0877625-.475778-.247-.658l-13.258-15.152c-.71260498-.83267284-.62232965-2.08376127.20243777-2.80550126s2.07677492-.64526053 2.80756223.17150126l13.258 15.152c.7973645.9113388 1.2369056 2.0810794 1.237 3.292v3.873c0 1.1045695-.8954305 2-2 2z" fill="#95a5a5"/><path id="Shape" d="m26 33c-1.1045695 0-2-.8954305-2-2v-8.873c.0000944-1.2109206.4396355-2.3806612 1.237-3.292l13.263-15.152c.4680075-.54686274 1.1937727-.80006155 1.9003853-.66299028.7066125.13707127 1.2850676.64326746 1.5146598 1.32545312s.0749037 1.4351241-.4050451 1.97153716l-13.263 15.152c-.1592375.182222-.246995.4160053-.247.658v8.873c0 1.1045695-.8954305 2-2 2z" fill="#95a5a5"/><path id="Shape" d="m21 19c-.2869121.0001423-.5600642-.1229582-.75-.338l-15-17c-.3656125-.41421356-.32621356-1.0463875.088-1.412s1.0463875-.32621356 1.412.088l14.25 16.151 14.25-16.151c.2365098-.26794919.5980031-.38936797.9483088-.31851905.3503057.07084891.6362041.32320189.75.662s.038201.71256986-.1983088.98051905l-15 17c-.1899358.2150418-.4630879.3381423-.75.338z" fill="#f9eab0"/></g></g></svg>