<?xml version="1.0" encoding="iso-8859-1"?>
<!-- Generator: Adobe Illustrator 19.0.0, SVG Export Plug-In . SVG Version: 6.00 Build 0)  -->
<svg version="1.1" id="Capa_1" xmlns="http://www.w3.org/2000/svg" xmlns:xlink="http://www.w3.org/1999/xlink" x="0px" y="0px"
	 viewBox="0 0 512 512" style="enable-background:new 0 0 512 512;" xml:space="preserve">
<g>
	<polygon style="fill:#BDDCF3;" points="494.345,35.31 494.345,476.69 476.69,494.345 361.931,494.345 361.931,17.655 
		476.69,17.655 	"/>
	<polygon style="fill:#336A93;" points="348.69,17.655 269.241,17.655 189.793,17.655 110.345,17.655 35.31,17.655 17.655,35.31 
		17.655,110.345 17.655,189.793 17.655,269.241 17.655,348.69 17.655,428.138 17.655,476.69 33.103,492.138 35.31,494.345 
		110.345,494.345 189.793,494.345 269.241,494.345 361.931,494.345 361.931,401.655 361.931,322.207 361.931,242.759 
		361.931,163.31 361.931,83.862 361.931,17.655 	"/>
	<g>
		<polygon style="fill:#5496CE;" points="361.931,83.862 361.931,163.31 33.103,492.138 17.655,476.69 17.655,428.138 		"/>
		<polygon style="fill:#5496CE;" points="361.931,242.759 361.931,322.207 189.793,494.345 110.345,494.345 		"/>
		<polygon style="fill:#5496CE;" points="361.931,401.655 361.931,494.345 269.241,494.345 		"/>
		<polygon style="fill:#5496CE;" points="189.793,17.655 17.655,189.793 17.655,110.345 110.345,17.655 		"/>
		<polygon style="fill:#5496CE;" points="348.69,17.655 17.655,348.69 17.655,269.241 269.241,17.655 		"/>
	</g>
	<g>
		<path style="fill:#FF6C77;" d="M0,26.483V8.828C0,3.952,3.952,0,8.828,0h17.655c4.875,0,8.828,3.952,8.828,8.828v17.655
			c0,4.875-3.952,8.828-8.828,8.828H8.828C3.952,35.31,0,31.358,0,26.483z"/>
		<path style="fill:#FF6C77;" d="M476.69,26.483V8.828c0-4.875,3.952-8.828,8.828-8.828h17.655C508.048,0,512,3.952,512,8.828
			v17.655c0,4.875-3.952,8.828-8.828,8.828h-17.655C480.642,35.31,476.69,31.358,476.69,26.483z"/>
		<path style="fill:#FF6C77;" d="M0,503.172v-17.655c0-4.875,3.952-8.828,8.828-8.828h17.655c4.875,0,8.828,3.952,8.828,8.828
			v17.655c0,4.875-3.952,8.828-8.828,8.828H8.828C3.952,512,0,508.048,0,503.172z"/>
		<path style="fill:#FF6C77;" d="M476.69,503.172v-17.655c0-4.875,3.952-8.828,8.828-8.828h17.655c4.875,0,8.828,3.952,8.828,8.828
			v17.655c0,4.875-3.952,8.828-8.828,8.828h-17.655C480.642,512,476.69,508.048,476.69,503.172z"/>
	</g>
</g>
<g>
</g>
<g>
</g>
<g>
</g>
<g>
</g>
<g>
</g>
<g>
</g>
<g>
</g>
<g>
</g>
<g>
</g>
<g>
</g>
<g>
</g>
<g>
</g>
<g>
</g>
<g>
</g>
<g>
</g>
</svg>
