<svg height="512" viewBox="0 0 59 60" width="512" xmlns="http://www.w3.org/2000/svg"><g id="Page-1" fill="none" fill-rule="evenodd"><g id="041---Type-Size" fill-rule="nonzero"><path id="Shape" d="m41.283 37.67-11.974-35.981c-.1398759-.41340368-.528578-.69093295-.965-.689h-8.688c-.436422-.00193295-.8251241.27559632-.965.689l-11.974 35.981-6.666 20.019c-.10057095.3072093-.04643886.644085.14531409.9043212.19175295.2602361.4974731.4117313.82068591.4066788h8.022c.43495181.0002121.82159241-.2769944.961-.689l3.87-11.622c.1409806-.4147692.5319395-.692471.97-.689h18.32c.4365921-.0017438.825485.2756342.966.689l3.874 11.622c.1398759.4134037.528578.6909329.965.689h8.022c.3232128.0050525.628933-.1464427.8206859-.4066788.191753-.2602362.2458851-.5971119.1453141-.9043212zm-24.083-.981 5.832-17.527c.1422888-.4119512.5301676-.6883415.966-.6883415s.8237112.2763903.966.6883415l5.836 17.527c.1006941.3075489.0463349.6448127-.1458896.9051498s-.4985473.4115591-.8221104.4058502h-11.664c-.3235631.0057089-.6298859-.1455131-.8221104-.4058502s-.2465837-.5976009-.1458896-.9051498z" fill="#894b9d"/><g fill="#2c3e50"><path id="Shape" d="m33 2h-1c-.5522847 0-1-.44771525-1-1s.4477153-1 1-1h1c.5522847 0 1 .44771525 1 1s-.4477153 1-1 1z"/><path id="Shape" d="m38 2h-1c-.5522847 0-1-.44771525-1-1s.4477153-1 1-1h1c.5522847 0 1 .44771525 1 1s-.4477153 1-1 1z"/><path id="Shape" d="m43 2h-1c-.5522847 0-1-.44771525-1-1s.4477153-1 1-1h1c.5522847 0 1 .44771525 1 1s-.4477153 1-1 1z"/><path id="Shape" d="m48 2h-1c-.5522847 0-1-.44771525-1-1s.4477153-1 1-1h1c.5522847 0 1 .44771525 1 1s-.4477153 1-1 1z"/><path id="Shape" d="m53 2h-1c-.5522847 0-1-.44771525-1-1s.4477153-1 1-1h1c.5522847 0 1 .44771525 1 1s-.4477153 1-1 1z"/><path id="Shape" d="m58 2h-1c-.5522847 0-1-.44771525-1-1s.4477153-1 1-1h1c.5522847 0 1 .44771525 1 1s-.4477153 1-1 1z"/><path id="Shape" d="m53 60h-1c-.5522847 0-1-.4477153-1-1s.4477153-1 1-1h1c.5522847 0 1 .4477153 1 1s-.4477153 1-1 1z"/><path id="Shape" d="m58 60h-1c-.5522847 0-1-.4477153-1-1s.4477153-1 1-1h1c.5522847 0 1 .4477153 1 1s-.4477153 1-1 1z"/></g><path id="Shape" d="m58 11c-.3037783.000114-.5911385-.1378631-.781-.375l-3.219-4.025-3.219 4.024c-.223291.2790244-.5784781.4177293-.9317659.3638658-.3532877-.0538634-.6510032-.2921121-.781-.625-.1299967-.3328878-.0725251-.70984137.1507659-.9888658l4-5c.1963931-.22634907.4813266-.35636072.781-.35636072s.5846069.13001165.781.35636072l4 5c.2409601.30016913.288245.7119953.1215881 1.058966-.166657.3469708-.5176686.5674872-.9025881.567034z" fill="#df4d60"/><path id="Shape" d="m54 56c-.3037783.000114-.5911385-.1378631-.781-.375l-4-5c-.345178-.4313344-.2753344-1.060822.156-1.406s1.060822-.2753344 1.406.156l3.219 4.025 3.219-4.024c.223291-.2790244.5784781-.4177293.9317659-.3638658.3532877.0538634.6510032.2921121.781.625.1299967.3328878.0725251.7098414-.1507659.9888658l-4 5c-.1900598.2367624-.47739.3743572-.781.374z" fill="#df4d60"/><path id="Shape" d="m54 50c-.5522847 0-1-.4477153-1-1v-38c0-.5522847.4477153-1 1-1s1 .4477153 1 1v38c0 .5522847-.4477153 1-1 1z" fill="#df4d60"/></g></g></svg>