<svg xmlns="http://www.w3.org/2000/svg" height="512pt" version="1.1" viewBox="0 -52 512.00003 512" width="512pt">
<g id="surface1">
<path d="M 0 0 L 113.292969 0 L 113.292969 113.292969 L 0 113.292969 Z M 0 0 " style=" stroke:none;fill-rule:nonzero;fill:rgb(100%,45.098039%,68.627451%);fill-opacity:1;" />
<path d="M 149.296875 0.00390625 L 512 0.00390625 L 512 113.296875 L 149.296875 113.296875 Z M 149.296875 0.00390625 " style=" stroke:none;fill-rule:nonzero;fill:rgb(31.764706%,98.431373%,99.607843%);fill-opacity:1;" />
<path d="M 0 147.007812 L 113.292969 147.007812 L 113.292969 260.300781 L 0 260.300781 Z M 0 147.007812 " style=" stroke:none;fill-rule:nonzero;fill:rgb(100%,45.098039%,68.627451%);fill-opacity:1;" />
<path d="M 149.296875 147.007812 L 512 147.007812 L 512 260.300781 L 149.296875 260.300781 Z M 149.296875 147.007812 " style=" stroke:none;fill-rule:nonzero;fill:rgb(31.764706%,98.431373%,99.607843%);fill-opacity:1;" />
<path d="M 0 294.011719 L 113.292969 294.011719 L 113.292969 407.308594 L 0 407.308594 Z M 0 294.011719 " style=" stroke:none;fill-rule:nonzero;fill:rgb(100%,45.098039%,68.627451%);fill-opacity:1;" />
<path d="M 149.296875 294.011719 L 512 294.011719 L 512 407.304688 L 149.296875 407.304688 Z M 149.296875 294.011719 " style=" stroke:none;fill-rule:nonzero;fill:rgb(31.764706%,98.431373%,99.607843%);fill-opacity:1;" />
<path d="M 255.675781 0.00390625 L 512 0.00390625 L 512 113.296875 L 255.675781 113.296875 Z M 255.675781 0.00390625 " style=" stroke:none;fill-rule:nonzero;fill:rgb(0%,90.980392%,94.901961%);fill-opacity:1;" />
<path d="M 255.675781 147.007812 L 512 147.007812 L 512 260.300781 L 255.675781 260.300781 Z M 255.675781 147.007812 " style=" stroke:none;fill-rule:nonzero;fill:rgb(0%,90.980392%,94.901961%);fill-opacity:1;" />
<path d="M 255.675781 294.011719 L 512 294.011719 L 512 407.304688 L 255.675781 407.304688 Z M 255.675781 294.011719 " style=" stroke:none;fill-rule:nonzero;fill:rgb(0%,90.980392%,94.901961%);fill-opacity:1;" />
</g>
</svg>