<svg height="512pt" viewBox="0 0 512.01206 512" width="512pt" xmlns="http://www.w3.org/2000/svg"><path d="m512 203.03125v300.136719c-.015625 4.871093-3.957031 8.816406-8.828125 8.828125h-494.34375c-4.871094-.011719-8.8125-3.957032-8.828125-8.828125v-194.203125l25.601562-167.8125c-4.675781-.460938-8.167968-4.511719-7.933593-9.207032.238281-4.691406 4.117187-8.371093 8.816406-8.363281h.882813l2.648437-26.570312c-4.679687-.460938-8.167969-4.511719-7.933594-9.203125.238281-4.691406 4.117188-8.375 8.816407-8.363282h.882812l1.941406-19.421874c.894532-9.023438 8.496094-15.898438 17.566406-15.886719h29.835938c9.070312-.011719 16.671875 6.863281 17.566406 15.886719l1.941406 19.421874h.882813c4.699219-.011718 8.578125 3.671876 8.816406 8.363282.234375 4.691406-3.257812 8.742187-7.933593 9.203125l2.648437 26.570312h.882813c4.699218-.007812 8.578124 3.671875 8.816406 8.363281.234375 4.695313-3.257813 8.746094-7.933594 9.207032l25.601562 167.8125 25.601563-167.8125c-4.679687-.460938-8.167969-4.511719-7.933594-9.207032.238281-4.691406 4.117188-8.371093 8.816407-8.363281h.882812l2.644531-26.570312c-4.675781-.460938-8.164062-4.511719-7.929687-9.203125s4.117187-8.375 8.8125-8.363282h.882812l1.945313-19.421874c.894531-9.023438 8.496093-15.898438 17.566406-15.886719h29.835937c9.070313-.011719 16.667969 6.863281 17.566407 15.886719l1.941406 19.421874h.882813c4.699218-.011718 8.578124 3.671876 8.816406 8.363282.234375 4.691406-3.257813 8.742187-7.933594 9.203125l2.648438 26.570312h.882812c4.699219-.007812 8.578125 3.671875 8.816406 8.363281.234375 4.695313-3.257812 8.746094-7.933594 9.207032l14.832032 60.46875 13.769531-5.210938c5.652344-5.03125 5.828125-1.058594 5.828125 6.621094l8.828125 74.769531 100.101563-81.390625c5.652343-5.03125 5.828124-1.058594 5.828124 6.621094l8.828126 74.769531 100.105468-81.390625c2.59375-2.308594 6.308594-2.875 9.472656-1.441406 3.167969 1.429688 5.195313 4.589844 5.179688 8.0625zm0 0" fill="#3f5c6c"/><path d="m132.414062 308.964844h-132.414062l24.894531-248.929688c.902344-9.027344 8.496094-15.898437 17.566407-15.898437h47.492187c9.070313 0 16.664063 6.871093 17.566406 15.898437zm0 0" fill="#a59078"/><path d="m110.34375 97.101562h-88.273438c-4.875 0-8.828124-3.953124-8.828124-8.828124s3.953124-8.828126 8.828124-8.828126h88.273438c4.875 0 8.828125 3.953126 8.828125 8.828126s-3.953125 8.828124-8.828125 8.828124zm0 0" fill="#7f6e5d"/><path d="m114.757812 141.238281h-97.101562c-4.875 0-8.828125-3.953125-8.828125-8.828125s3.953125-8.828125 8.828125-8.828125h97.101562c4.875 0 8.828126 3.953125 8.828126 8.828125s-3.953126 8.828125-8.828126 8.828125zm0 0" fill="#7f6e5d"/><path d="m254.058594 201.621094-6.886719-69.210938-4.414063-44.136718-2.824218-28.25c-.898438-9.023438-8.496094-15.898438-17.566406-15.886719h-47.492188c-9.070312-.011719-16.671875 6.863281-17.566406 15.886719l-2.824219 28.25-4.414063 44.136718-17.65625 176.554688h132.414063zm0 0" fill="#a59078"/><path d="m242.757812 97.101562h-88.273437c-4.878906 0-8.828125-3.953124-8.828125-8.828124s3.949219-8.828126 8.828125-8.828126h88.273437c4.875 0 8.828126 3.953126 8.828126 8.828126s-3.953126 8.828124-8.828126 8.828124zm0 0" fill="#7f6e5d"/><path d="m247.171875 141.238281h-97.101563c-4.875 0-8.828124-3.953125-8.828124-8.828125s3.953124-8.828125 8.828124-8.828125h97.101563c4.875 0 8.828125 3.953125 8.828125 8.828125s-3.953125 8.828125-8.828125 8.828125zm0 0" fill="#7f6e5d"/><path d="m282.484375 308.964844h-150.070313l135.402344-119.472656c2.601563-2.296876 6.308594-2.855469 9.46875-1.425782 3.164063 1.425782 5.199219 4.574219 5.199219 8.042969v81.691406" fill="#84b5cb"/><path d="m397.242188 308.964844h-150.070313l35.3125-31.164063 100.089844-88.308593c2.601562-2.296876 6.308593-2.855469 9.472656-1.429688 3.160156 1.429688 5.195313 4.578125 5.195313 8.046875v81.691406" fill="#3b97d3"/><path d="m497.332031 189.492188-135.402343 119.472656h150.070312v-112.855469c0-3.46875-2.03125-6.617187-5.195312-8.042969-3.164063-1.429687-6.871094-.871094-9.472657 1.425782zm0 0" fill="#2980ba"/><path d="m512 308.964844v158.894531h-317.792969v-52.964844c-.015625-4.871093-3.957031-8.8125-8.828125-8.828125h-105.929687c-4.871094.015625-8.816407 3.957032-8.828125 8.828125v52.964844h-70.621094v-158.894531zm0 0" fill="#547580"/><path d="m194.207031 414.894531v97.101563h-61.792969v-105.929688h52.964844c4.871094.015625 8.8125 3.957032 8.828125 8.828125zm0 0" fill="#2980ba"/><path d="m132.414062 406.066406v105.929688h-61.792968v-97.101563c.011718-4.871093 3.957031-8.8125 8.828125-8.828125zm0 0" fill="#3b97d3"/><path d="m194.207031 379.582031h-123.585937c-4.875 0-8.828125-3.949219-8.828125-8.824219 0-4.878906 3.953125-8.828124 8.828125-8.828124h123.585937c4.875 0 8.828125 3.949218 8.828125 8.828124 0 4.875-3.953125 8.824219-8.828125 8.824219zm0 0" fill="#ecf0f1"/><path d="m361.929688 344.273438v88.277343h-97.101563c-4.871094-.015625-8.8125-3.960937-8.828125-8.828125v-70.621094c.015625-4.871093 3.957031-8.8125 8.828125-8.828124zm0 0" fill="#b0d3f0"/><path d="m467.863281 353.101562v70.621094c-.015625 4.867188-3.960937 8.8125-8.828125 8.828125h-97.105468v-88.277343h97.105468c4.867188.015624 8.8125 3.957031 8.828125 8.828124zm0 0" fill="#b0d3f0"/><path d="m506.128906 96.367188c10.523438-20.417969 6.675782-45.296876-9.527344-61.578126-16.203124-16.285156-41.0625-20.257812-61.53125-9.835937-3.910156-5.25-8.984374-9.527344-14.820312-12.492187-13.691406-7.054688-30.074219-6.453126-43.210938 1.589843-3.144531-4.257812-7.242187-7.726562-11.960937-10.128906-8.328125-4.285156-18.015625-5.089844-26.9375-2.230469-8.917969 2.855469-16.335937 9.140625-20.617187 17.472656-12.144532-6.25-27.046876-2.242187-34.417969 9.257813-7.367188 11.5-4.78125 26.714844 5.96875 35.136719s26.144531 7.285156 35.542969-2.621094c2.4375 2.289062 5.179687 4.234375 8.144531 5.777344 8.253906 4.238281 17.839843 5.070312 26.699219 2.324218 8.542968 20.0625 30.484374 30.84375 51.585937 25.355469 4.882813 10.726563 13.253906 19.480469 23.753906 24.832031 26.011719 13.359376 57.929688 3.132813 71.328125-22.859374zm0 0" fill="#bdc3c7"/><path d="m141.242188 476.6875h-17.65625c-4.875 0-8.828126-3.953125-8.828126-8.828125s3.953126-8.828125 8.828126-8.828125h17.65625c4.875 0 8.828124 3.953125 8.828124 8.828125s-3.953124 8.828125-8.828124 8.828125zm0 0" fill="#bdc3c7"/><path d="m467.863281 379.582031v17.65625h-44.140625v35.3125h-17.652344v-35.3125h-35.3125v35.3125h-17.65625v-35.3125h-35.308593v35.3125h-17.65625v-35.3125h-44.136719v-17.65625h44.136719v-35.308593h17.65625v35.308593h35.308593v-35.308593h17.65625v35.308593h35.3125v-35.308593h17.652344v35.308593zm0 0" fill="#3f5c6c"/></svg>