<?xml version="1.0" encoding="iso-8859-1"?>
<!-- Generator: Adobe Illustrator 19.0.0, SVG Export Plug-In . SVG Version: 6.00 Build 0)  -->
<svg version="1.1" id="Capa_1" xmlns="http://www.w3.org/2000/svg" xmlns:xlink="http://www.w3.org/1999/xlink" x="0px" y="0px"
	 viewBox="0 0 512 512" style="enable-background:new 0 0 512 512;" xml:space="preserve">
<g>
	<path style="fill:#98A9D5;" d="M17.655,0h476.69C504.095,0,512,7.904,512,17.655v476.69c0,9.751-7.905,17.655-17.655,17.655H17.655
		C7.904,512,0,504.095,0,494.345V17.655C0,7.904,7.904,0,17.655,0z"/>
	<path style="fill:#9C63AD;" d="M158.897,167.724h194.207c9.751,0,17.655,7.904,17.655,17.655v88.276
		c0,9.751-7.904,17.655-17.655,17.655H158.897c-9.751,0-17.655-7.904-17.655-17.655v-88.276
		C141.241,175.629,149.146,167.724,158.897,167.724z"/>
	<g>
		<path style="fill:#3A3E48;" d="M467.862,52.966H44.138c-4.875,0-8.828-3.952-8.828-8.828s3.952-8.828,8.828-8.828h423.724
			c4.875,0,8.828,3.952,8.828,8.828S472.737,52.966,467.862,52.966z"/>
		<path style="fill:#3A3E48;" d="M467.862,114.759H44.138c-4.875,0-8.828-3.952-8.828-8.828c0-4.875,3.952-8.828,8.828-8.828
			h423.724c4.875,0,8.828,3.952,8.828,8.828C476.69,110.806,472.737,114.759,467.862,114.759z"/>
		<path style="fill:#3A3E48;" d="M467.862,361.931H44.138c-4.875,0-8.828-3.952-8.828-8.828s3.952-8.828,8.828-8.828h423.724
			c4.875,0,8.828,3.952,8.828,8.828S472.737,361.931,467.862,361.931z"/>
		<path style="fill:#3A3E48;" d="M467.862,423.724H44.138c-4.875,0-8.828-3.952-8.828-8.828s3.952-8.828,8.828-8.828h423.724
			c4.875,0,8.828,3.952,8.828,8.828S472.737,423.724,467.862,423.724z"/>
		<path style="fill:#3A3E48;" d="M467.862,485.517H44.138c-4.875,0-8.828-3.952-8.828-8.828s3.952-8.828,8.828-8.828h423.724
			c4.875,0,8.828,3.952,8.828,8.828S472.737,485.517,467.862,485.517z"/>
	</g>
</g>
<g>
</g>
<g>
</g>
<g>
</g>
<g>
</g>
<g>
</g>
<g>
</g>
<g>
</g>
<g>
</g>
<g>
</g>
<g>
</g>
<g>
</g>
<g>
</g>
<g>
</g>
<g>
</g>
<g>
</g>
</svg>
