<?xml version="1.0" encoding="iso-8859-1"?>
<!-- Generator: Adobe Illustrator 19.0.0, SVG Export Plug-In . SVG Version: 6.00 Build 0)  -->
<svg version="1.1" id="Capa_1" xmlns="http://www.w3.org/2000/svg" xmlns:xlink="http://www.w3.org/1999/xlink" x="0px" y="0px"
	 viewBox="0 0 512 512" style="enable-background:new 0 0 512 512;" xml:space="preserve">
<g>
	<polygon style="fill:#FDD7AD;" points="256,0 167.724,44.138 132.414,61.793 97.103,79.448 8.828,123.586 8.828,388.414 256,512 
		503.172,388.414 503.172,123.586 	"/>
	<g>
		<polygon style="fill:#CBB292;" points="379.586,185.379 344.276,203.034 97.103,79.448 132.414,61.793 		"/>
		<polygon style="fill:#CBB292;" points="256,247.172 256,512 8.828,388.414 8.828,123.586 		"/>
	</g>
	<polygon style="fill:#7F6E5D;" points="503.172,123.586 503.172,388.414 256,512 256,247.172 344.276,203.034 344.276,238.345 
		414.897,203.034 414.897,167.724 	"/>
	<polygon style="fill:#7F5B53;" points="414.897,167.724 414.897,203.034 344.276,238.345 344.276,203.034 	"/>
	<polygon style="fill:#CBB292;" points="414.897,167.724 379.586,185.379 132.414,61.793 167.724,44.138 	"/>
	<path style="fill:#2C3E50;" d="M341.26,275.163l78.516-39.258c2.736-1.368,5.986-1.222,8.589,0.386
		c2.603,1.608,4.187,4.45,4.187,7.509v4.66c0,10.031-5.667,19.201-14.639,23.687l-78.516,39.258
		c-2.736,1.368-5.986,1.222-8.588-0.386c-2.602-1.608-4.187-4.449-4.187-7.509v-4.66
		C326.621,288.819,332.288,279.649,341.26,275.163L341.26,275.163z"/>
</g>
<g>
</g>
<g>
</g>
<g>
</g>
<g>
</g>
<g>
</g>
<g>
</g>
<g>
</g>
<g>
</g>
<g>
</g>
<g>
</g>
<g>
</g>
<g>
</g>
<g>
</g>
<g>
</g>
<g>
</g>
</svg>
