<?xml version="1.0" encoding="iso-8859-1"?>
<!-- Generator: Adobe Illustrator 19.0.0, SVG Export Plug-In . SVG Version: 6.00 Build 0)  -->
<svg version="1.1" id="Capa_1" xmlns="http://www.w3.org/2000/svg" xmlns:xlink="http://www.w3.org/1999/xlink" x="0px" y="0px"
	 viewBox="0 0 512.001 512.001" style="enable-background:new 0 0 512.001 512.001;" xml:space="preserve">
<g>
	<path style="fill:#D1D4D1;" d="M491.934,0.171L256,33.047L20.067,0.171c-5.082-0.68-10.21,0.875-14.058,4.264
		S-0.031,12.712,0,17.84v476.321c-0.031,5.127,2.161,10.017,6.009,13.405c3.848,3.388,8.976,4.943,14.058,4.264L256,478.953
		l235.933,32.876c5.082,0.68,10.21-0.875,14.058-4.264c3.848-3.388,6.04-8.278,6.009-13.405V17.84
		c0.031-5.127-2.16-10.017-6.009-13.405C502.143,1.046,497.016-0.509,491.934,0.171z"/>
	<path style="fill:#46B29D;" d="M220.69,264.828v16.419c0.312,5.207-3.625,9.695-8.828,10.063H44.138
		c-5.203-0.369-9.14-4.857-8.828-10.063V244.26l52.966-58.88l28.866,32.927l32.927-32.927L220.69,264.828z"/>
	<path style="fill:#3B97D3;" d="M220.69,99.134v165.694l-70.621-79.448l-32.927,32.927L88.276,185.38l-52.966,58.88V71.857
		c-0.201-2.718,0.797-5.388,2.733-7.307c1.936-1.919,4.614-2.894,7.331-2.668l167.724,27.277
		C217.712,90.205,220.911,94.409,220.69,99.134z"/>
	<path style="fill:#A5A5A4;" d="M256,478.954l235.932,32.876c5.082,0.68,10.21-0.875,14.059-4.263
		c3.848-3.388,6.04-8.278,6.009-13.406V17.84c0.031-5.128-2.16-10.017-6.009-13.406c-3.848-3.388-8.976-4.944-14.059-4.263
		L256,33.047V478.954z"/>
	<circle style="fill:#F0C419;" cx="167.724" cy="141.242" r="17.655"/>
	<g>
		<path style="fill:#35495E;" d="M256,478.985L20.039,511.824c-5.076,0.674-10.196-0.882-14.038-4.267
			c-3.842-3.385-6.031-8.268-6.001-13.388V362.991l142.124-6.797c26.619-1.287,51.676,12.592,64.706,35.84L256,478.985z"/>
		<path style="fill:#35495E;" d="M512,362.991v131.178c0.03,5.121-2.159,10.003-6.001,13.388c-3.842,3.385-8.962,4.941-14.038,4.267
			L256,478.985l49.17-86.952c13.03-23.248,38.087-37.126,64.706-35.84L512,362.991z"/>
	</g>
	<g>
		<path style="fill:#5E5F62;" d="M291.302,123.587c-4.632-0.002-8.474-3.584-8.8-8.204s2.974-8.707,7.559-9.36L475.44,79.539
			c3.125-0.454,6.254,0.796,8.206,3.279c1.952,2.482,2.429,5.818,1.252,8.748c-1.178,2.93-3.831,5.007-6.958,5.448L292.56,123.496
			C292.144,123.556,291.723,123.586,291.302,123.587z"/>
		<path style="fill:#5E5F62;" d="M291.302,176.552c-4.709-0.007-8.584-3.71-8.805-8.414c-0.221-4.704,3.289-8.754,7.978-9.202
			l185.379-17.655c4.846-0.448,9.141,3.11,9.602,7.955s-3.086,9.149-7.929,9.623l-185.379,17.655
			C291.862,176.539,291.578,176.552,291.302,176.552z"/>
		<path style="fill:#5E5F62;" d="M476.69,229.518H291.311c-4.875,0-8.828-3.952-8.828-8.828s3.952-8.828,8.828-8.828H476.69
			c4.875,0,8.828,3.952,8.828,8.828S481.565,229.518,476.69,229.518z"/>
		<path style="fill:#5E5F62;" d="M476.69,282.483H291.311c-4.875,0-8.828-3.952-8.828-8.828s3.952-8.828,8.828-8.828H476.69
			c4.875,0,8.828,3.952,8.828,8.828S481.565,282.483,476.69,282.483z"/>
	</g>
</g>
<g>
</g>
<g>
</g>
<g>
</g>
<g>
</g>
<g>
</g>
<g>
</g>
<g>
</g>
<g>
</g>
<g>
</g>
<g>
</g>
<g>
</g>
<g>
</g>
<g>
</g>
<g>
</g>
<g>
</g>
</svg>
