<svg id="bold" enable-background="new 0 0 32 32" height="512" viewBox="0 0 32 32" width="512" xmlns="http://www.w3.org/2000/svg"><path d="m26 32h-20c-3.314 0-6-2.686-6-6v-20c0-3.314 2.686-6 6-6h20c3.314 0 6 2.686 6 6v20c0 3.314-2.686 6-6 6z" fill="#e3f8fa"/><path d="m20.167 14h-4.834v2.667h4.834c.273 0 .5-.227.5-.5v-1.667c0-.273-.227-.5-.5-.5zm-8.834.5v1.667c0 .273.227.5.5.5h2.167v-2.667h-2.167c-.273 0-.5.227-.5.5z" fill="#8ce1eb"/><path d="m20.167 18h-4.834v2.667h4.834c.273 0 .5-.227.5-.5v-1.667c0-.273-.227-.5-.5-.5zm-8.834.5v1.667c0 .273.227.5.5.5h2.167v-2.667h-2.167c-.273 0-.5.227-.5.5z" fill="#8ce1eb"/><path d="m22 8.667h-12c-1.103 0-2 .897-2 2v10.667c0 1.103.897 2 2 2h12c1.103 0 2-.897 2-2v-10.667c0-1.103-.897-2-2-2zm0 13.333h-12c-.368 0-.667-.299-.667-.667v-9.333h13.334v9.333c0 .368-.299.667-.667.667z" fill="#26c6da"/></svg>