<svg height="512pt" viewBox="0 -61 512 511" width="512pt" xmlns="http://www.w3.org/2000/svg"><path d="m52.964844 362.429688h406.070312l26.480469-26.480469v-282.484375l-26.480469-26.480469h-406.070312l-26.480469 26.480469v282.484375zm0 0" fill="#b0d3f0"/><path d="m8.828125.5h35.308594c4.875 0 8.828125 3.953125 8.828125 8.828125v35.308594c0 4.875-3.953125 8.828125-8.828125 8.828125h-35.308594c-4.875 0-8.828125-3.953125-8.828125-8.828125v-35.308594c0-4.875 3.953125-8.828125 8.828125-8.828125zm0 0" fill="#2fa8cc"/><path d="m467.863281.5h35.308594c4.875 0 8.828125 3.953125 8.828125 8.828125v35.308594c0 4.875-3.953125 8.828125-8.828125 8.828125h-35.308594c-4.875 0-8.828125-3.953125-8.828125-8.828125v-35.308594c0-4.875 3.953125-8.828125 8.828125-8.828125zm0 0" fill="#2fa8cc"/><path d="m8.828125 335.949219h35.308594c4.875 0 8.828125 3.953125 8.828125 8.828125v35.308594c0 4.875-3.953125 8.828124-8.828125 8.828124h-35.308594c-4.875 0-8.828125-3.953124-8.828125-8.828124v-35.308594c0-4.875 3.953125-8.828125 8.828125-8.828125zm0 0" fill="#2fa8cc"/><path d="m467.863281 335.949219h35.308594c4.875 0 8.828125 3.953125 8.828125 8.828125v35.308594c0 4.875-3.953125 8.828124-8.828125 8.828124h-35.308594c-4.875 0-8.828125-3.953124-8.828125-8.828124v-35.308594c0-4.875 3.953125-8.828125 8.828125-8.828125zm0 0" fill="#2fa8cc"/><g fill="#2c3e50"><path d="m441.378906 309.464844h-370.757812c-4.875 0-8.828125-3.953125-8.828125-8.828125s3.953125-8.828125 8.828125-8.828125h370.757812c4.875 0 8.828125 3.953125 8.828125 8.828125s-3.953125 8.828125-8.828125 8.828125zm0 0"/><path d="m441.378906 274.15625h-370.757812c-4.875 0-8.828125-3.953125-8.828125-8.828125s3.953125-8.828125 8.828125-8.828125h370.757812c4.875 0 8.828125 3.953125 8.828125 8.828125s-3.953125 8.828125-8.828125 8.828125zm0 0"/><path d="m441.378906 238.84375h-194.207031c-4.875 0-8.828125-3.949219-8.828125-8.828125 0-4.875 3.953125-8.824219 8.828125-8.824219h194.207031c4.875 0 8.828125 3.949219 8.828125 8.824219 0 4.878906-3.953125 8.828125-8.828125 8.828125zm0 0"/><path d="m441.378906 203.535156h-194.207031c-4.875 0-8.828125-3.953125-8.828125-8.828125s3.953125-8.828125 8.828125-8.828125h194.207031c4.875 0 8.828125 3.953125 8.828125 8.828125s-3.953125 8.828125-8.828125 8.828125zm0 0"/><path d="m441.378906 168.222656h-194.207031c-4.875 0-8.828125-3.949218-8.828125-8.824218 0-4.878907 3.953125-8.828126 8.828125-8.828126h194.207031c4.875 0 8.828125 3.949219 8.828125 8.828126 0 4.875-3.953125 8.824218-8.828125 8.824218zm0 0"/><path d="m441.378906 132.914062h-194.207031c-4.875 0-8.828125-3.953124-8.828125-8.828124s3.953125-8.828126 8.828125-8.828126h194.207031c4.875 0 8.828125 3.953126 8.828125 8.828126s-3.953125 8.828124-8.828125 8.828124zm0 0"/><path d="m441.378906 97.601562h-194.207031c-4.875 0-8.828125-3.949218-8.828125-8.824218s3.953125-8.828125 8.828125-8.828125h194.207031c4.875 0 8.828125 3.953125 8.828125 8.828125s-3.953125 8.824218-8.828125 8.824218zm0 0"/></g><path d="m211.863281 238.84375c-3.425781.003906-6.539062-1.96875-8-5.066406l-62.621093-133.09375-62.675782 133.09375c-1.34375 2.855468-4.109375 4.773437-7.253906 5.039062-3.140625.261719-6.1875-1.171875-7.988281-3.761718-1.800781-2.589844-2.082031-5.945313-.738281-8.796876l70.621093-150.070312c1.457031-3.09375 4.570313-5.070312 7.988281-5.070312 3.421876 0 6.535157 1.976562 7.992188 5.070312l70.621094 150.070312c1.28125 2.726563 1.085937 5.921876-.523438 8.472657-1.609375 2.546875-4.40625 4.101562-7.421875 4.113281zm0 0" fill="#c03a2b"/><path d="m176.550781 177.050781h-70.621093c-4.875 0-8.828126-3.953125-8.828126-8.828125s3.953126-8.824218 8.828126-8.824218h70.621093c4.875 0 8.828125 3.949218 8.828125 8.824218s-3.953125 8.828125-8.828125 8.828125zm0 0" fill="#c03a2b"/></svg>