<svg height="512pt" viewBox="0 0 512 512" width="512pt" xmlns="http://www.w3.org/2000/svg"><path d="m480 384h-448c-17.679688 0-32-14.320312-32-32v-192c0-17.679688 14.320312-32 32-32h448c17.679688 0 32 14.320312 32 32v192c0 17.679688-14.320312 32-32 32zm0 0" fill="#ceed5f"/><path d="m480 128h-448c-17.679688 0-32 14.320312-32 32v32c0-17.679688 14.320312-32 32-32h448c17.679688 0 32 14.320312 32 32v-32c0-17.679688-14.320312-32-32-32zm0 0" fill="#badb31"/><path d="m372.847656 32h59.152344c8.832031 0 16-7.167969 16-16s-7.167969-16-16-16h-68.847656l-43.152344 28.769531-43.152344-28.769531h-68.847656c-8.832031 0-16 7.167969-16 16s7.167969 16 16 16h59.152344l36.847656 24.558594v398.867187l-36.847656 24.574219h-59.152344c-8.832031 0-16 7.167969-16 16s7.167969 16 16 16h68.847656l43.152344-28.769531 43.152344 28.769531h68.847656c8.832031 0 16-7.167969 16-16s-7.167969-16-16-16h-59.152344l-36.847656-24.558594v-398.882812zm0 0" fill="#77959e"/><path d="m368 272h-96c-8.832031 0-16-7.167969-16-16s7.167969-16 16-16h96c8.832031 0 16 7.167969 16 16s-7.167969 16-16 16zm0 0" fill="#62808c"/></svg>