<svg height="512" viewBox="0 0 52 58" width="512" xmlns="http://www.w3.org/2000/svg"><g id="002---Male-User" fill="none"><path id="Shape" d="m51.93 53c-10.57 6.64-41.33 6.61-51.86 0 .88-.44 3.54-1.9 4.75-2.59 6.41-3.71 5.53-.05 13.18-7.41v-6.68h16v6.68c1.5824611 1.5479168 3.2954752 2.9564694 5.12 4.21.9308568.54601 1.9439588.9377428 3 1.16 3.16.56 5.78 2.63 9.81 4.63z" fill="#fdd7ad"/><path id="Shape" d="m34 35v4c-2.9 2.94-3.07 5.72-6.3 5.72h-3.4c-3.23 0-3.4-2.78-6.3-5.72v-4z" fill="#f9c795"/><path id="Shape" d="m18.68 57.71c-5.53-.45-13.91-1.71-18.61-4.71.88-.44 3.54-1.9 4.75-2.59 4.39-2.56 4.54-1.52 7.25-2.8.24 2.06 1.43 8.49 6.61 10.1z" fill="#955ba5"/><path id="Shape" d="m51.93 53c-4.7 2.94-13.08 4.24-18.61 4.69 5.18-1.61 6.37-8 6.61-10.08.6928161.3369715 1.4252155.5855841 2.18.74 3.17.58 5.79 2.65 9.82 4.65z" fill="#955ba5"/><path id="Shape" d="m37.87 20.71c.469507-.491412 1.1315967-.7511267 1.81-.71 1.77-.27 1.53 3.3 1.18 5.06-.2117094 2.1960681-1.6489904 4.0827417-3.71 4.87h-22.3c-2.0580884-.7911584-3.4937549-2.6757125-3.71-4.87-.35-1.75-.59-5.33 1.18-5.06.6846461-.0695216 1.3601786.1991985 1.81.72z" fill="#f9c795"/><path id="Shape" d="m37.06 26.92c0 3.28.82 5.8-2.55 8.87s-3.4 6.21-6.81 6.21h-3.4c-3.41 0-3.41-3.1-6.81-6.21s-2.55-5.69-2.55-8.87c0-2.05-.5-3.16-.81-6.21-.09-.9 0-.79-.13-.79 0-2-2.89-7 6-10.92 4.09-1.82 11-5 12-2s6 6 6 9.3c.08 6.88-.94 7.83-.94 10.62z" fill="#fdd7ad"/><path id="Shape" d="m38 18.3c-.5579979.683322-1.2357087 1.2593762-2 1.7-3 2-5 2-5 2s3-4 2-7-6.91-3.82-11-2c-6.3 2.8-7.7 5.1-8 6.92 0-2-2.89-7 6-10.92 4.09-1.82 11-5 12-2s6 6 6 9.3z" fill="#f9c795"/><path id="Shape" d="m41 10c0 2.61-3 7-5 8-3 2-5 2-5 2l.09-.13c.51-.72 2.8-4.19 1.91-6.87-.61-1.85-3.1-2.87-5.88-2.95-1.7556298-.06191794-3.503444.2623835-5.12.95-6.63 2.95-7.83 5.35-8 7.21-.0306756.5962724-.0306756 1.1937276 0 1.79-2-1-3-3.68-3-6.2 0-8.4 6.53-8.7 6.53-8.7h.32c1.8793718-2.73927506 4.8506258-4.53296459 8.15-4.92.6610285-.11147659 1.3296895-.17165608 2-.18 7.19 0 13 2.9 13 10z" fill="#805333"/><path id="Shape" d="m39 10c0 2.64-2.64 7-4.33 8-1.0505446.8651494-2.269768 1.5020063-3.58 1.87.51-.72 2.8-4.19 1.91-6.87-.82-2.49-4.82-3.2-7.41-2.9-1.2382369.099201-2.4514052.4033379-3.59.9-6.63 2.95-7.83 5.35-8 7.21-.6764653-1.3705626-1.0191283-2.8817064-1-4.41 0-8.4 5.66-8.7 5.66-8.7h.28c1.5009638-2.6116094 4.090249-4.41604047 7.06-4.92.6834979-.11973658 1.3760935-.17996229 2.07-.18 6.46 0 10.93 3.43 10.93 10z" fill="#a56a43"/></g></svg>