<svg height="512pt" viewBox="0 0 512 512" width="512pt" xmlns="http://www.w3.org/2000/svg"><path d="m497 348.433594c0 22.089844-18.074219 40.167968-40.164062 40.167968h-401.671876c-22.089843 0-40.164062-18.078124-40.164062-40.167968v-293.269532c0-22.089843 18.074219-40.164062 40.164062-40.164062h401.671876c22.089843 0 40.164062 18.074219 40.164062 40.164062zm0 0" fill="#ff4949"/><path d="m456.832031 15h-200.832031v373.601562h200.832031c22.09375 0 40.167969-18.078124 40.167969-40.167968v-293.269532c0-22.089843-18.074219-40.164062-40.167969-40.164062zm0 0" fill="#f30051"/><path d="m456.835938 0h-401.671876c-30.417968 0-55.164062 24.746094-55.164062 55.164062v293.269532c0 30.417968 24.746094 55.167968 55.164062 55.167968h161.734376v30.199219h-81.398438c-21.558594 0-39.101562 17.539063-39.101562 39.097657 0 21.5625 17.542968 39.101562 39.101562 39.101562h241c21.558594 0 39.101562-17.539062 39.101562-39.101562 0-21.558594-17.539062-39.097657-39.101562-39.097657h-81.398438v-30.203125h161.734376c30.417968 0 55.164062-24.746094 55.164062-55.164062v-293.269532c0-30.417968-24.746094-55.164062-55.164062-55.164062zm25.164062 348.433594c0 13.878906-11.289062 25.167968-25.164062 25.167968h-401.671876c-13.875 0-25.164062-11.292968-25.164062-25.167968v-293.269532c0-13.875 11.289062-25.164062 25.164062-25.164062h401.671876c13.875 0 25.164062 11.289062 25.164062 25.164062zm0 0" fill="#265c76"/><path d="m351.238281 142.523438-144.597656-74.554688c-4.652344-2.398438-10.214844-2.199219-14.679687.523438-4.46875 2.722656-7.195313 7.574218-7.195313 12.808593v149.105469c0 5.234375 2.726563 10.085938 7.195313 12.808594 2.390624 1.457031 5.09375 2.191406 7.804687 2.191406 2.355469 0 4.710937-.554688 6.875-1.667969l144.597656-74.550781c4.992188-2.574219 8.128907-7.71875 8.128907-13.332031 0-5.617188-3.136719-10.757813-8.128907-13.332031zm0 0" fill="#e7f0ef"/><path d="m280.101562 313.199219h-200.835937c-8.285156 0-15-6.714844-15-15 0-8.285157 6.714844-15 15-15h200.835937c8.285157 0 15 6.714843 15 15 0 8.285156-6.714843 15-15 15zm0 0" fill="#c5e1e6"/><path d="m432.730469 313.199219h-104.429688c-8.285156 0-15-6.714844-15-15 0-8.285157 6.714844-15 15-15h104.433594c8.285156 0 15 6.714843 15 15 0 8.285156-6.714844 15-15.003906 15zm0 0" fill="#1d4659"/><path d="m295.101562 259.101562c-21.5625 0-39.097656 17.539063-39.097656 39.097657 0 21.5625 17.539063 39.101562 39.097656 39.101562 21.5625 0 39.101563-17.539062 39.101563-39.101562-.003906-21.558594-17.542969-39.097657-39.101563-39.097657zm0 0" fill="#e7f0ef"/><path d="m456.832031 0h-200.832031v30h200.832031c13.878907 0 25.167969 11.289062 25.167969 25.164062v293.269532c0 13.878906-11.289062 25.167968-25.167969 25.167968h-200.832031v138.398438h120.5c21.558594 0 39.101562-17.539062 39.101562-39.101562 0-21.558594-17.539062-39.097657-39.101562-39.097657h-81.398438v-30.203125h161.730469c30.421875 0 55.167969-24.746094 55.167969-55.164062v-293.269532c0-30.417968-24.746094-55.164062-55.167969-55.164062zm0 0" fill="#1d4659"/></svg>